<svg xmlns="http://www.w3.org/2000/svg" id="Layer_1" data-name="Layer 1" viewBox="0 0 382.17 189.98"><path d="M181.44,188.47c20.24,2.09,32.83,4.64,45.7-12.38s155-179.3,155-179.3L0,0S56,144.16,58.94,152.22s10.15,19.23,20.84,21.49" fill="#231f20" opacity="0.5"></path><path d="M22.69-7.24S61.27,144.4,63.26,150.39s6.65,17.29,16.63,19.29,95.38,13.3,103.56,14,28,1.33,41-19.95S325.31-4.58,325.31-4.58Z" fill="#fff"></path><ellipse cx="152.12" cy="88.6" rx="73.67" ry="73.02" transform="translate(-23.83 94.1) rotate(-32.01)" fill="#fff"></ellipse><path d="M151.88,15.15c-40.72.32-73.73,33.42-73.73,73.91a72.83,72.83,0,0,0,73.73,72.74c40.72-.32,73.73-33.42,73.73-73.92A72.81,72.81,0,0,0,151.88,15.15Zm-.49,118.09c-25,.2-45.32-19.54-45.32-44s20.29-44.54,45.32-44.74,45.32,19.53,45.32,44S176.42,133,151.39,133.24Z" fill="#fff"></path><path d="M89.56,46.31A74.06,74.06,0,0,1,99,35.08a76.3,76.3,0,0,1,81.46-16.55,74.7,74.7,0,0,1,24.31,15.71A74.27,74.27,0,0,1,221.26,58a75,75,0,0,1-7.09,72.34,76.59,76.59,0,0,1-33.75,27.31,76.46,76.46,0,0,1-57.12.46,74.87,74.87,0,0,1-33.74-26.77,72.86,72.86,0,0,1-7.08-12.69,74.39,74.39,0,0,1-4.63-45,72.67,72.67,0,0,1,4.63-14.57,74.21,74.21,0,0,1,7.08-12.8Zm12.71-7.71A71.6,71.6,0,0,0,86.84,61.05a69.56,69.56,0,0,0,0,55.57,69.69,69.69,0,0,0,15.43,22.21,70.14,70.14,0,0,0,22.79,14.73A71.48,71.48,0,0,0,201.49,138a70,70,0,0,0,15.44-78,69.81,69.81,0,0,0-15.44-22.21,69.75,69.75,0,0,0-22.78-14.7A71.52,71.52,0,0,0,102.28,38.6Z" fill="#010101"></path><path d="M181.84,83.43s1.09-4.3,6.39-8.38c0,0-24.11-1.94-38.87-19.38C149.36,55.67,156.14,73,181.84,83.43Z" fill="#d03428" fill-rule="evenodd"></path><path d="M134.47,74,134,75.25s8.73,10.14,24.6,2.1V72.63S146.53,80.82,134.47,74Z" fill="#d03428" fill-rule="evenodd"></path><path d="M135.81,106.06c.2-7.65-.79-16.83-5.38-23.92l30.25,6.36c.47,7.17,1,13.39,1.52,18.35-11.11,1.88-22.54,0-26.39-.77Zm38.87,3.52-4.93-4.76a36.3,36.3,0,0,1-3.54,1.11l.48-18.26,2.45,0,3.56-6.07-5.84,0,.08-2.41L160,76.75c.07,1.68.16,3.32.24,4.93l-30,.24a20.51,20.51,0,0,0-2-2.57l22-28.11-1.37-1L118.69,88.94,120,90l8.25-10.49c.45,2.52,3.45,19.9,1.17,33l4.55,8.3a73,73,0,0,0,1.66-11c4.11,1,17,3.74,22.45,2.54,1.41-.31,3-.62,4.61-.89.6,5.35,1,8.3,1,8.3l2.2-3.94.14-4.92c4.58-.72,8.6-1.21,8.6-1.21Z" fill="#d03428" fill-rule="evenodd"></path><path d="M99.53,48.3l4.52,6.37,8.7,3-2.49,3.68-6.62-2.66,5.62,4.11-2.4,3.6-13.1-9.6,2.42-3.56L101.27,57l-4-5.32Z" fill="#010101"></path><path d="M111.56,36.26,118.24,45a18.55,18.55,0,0,1,1.47,2.15,3.73,3.73,0,0,1,.4,1.7,3.94,3.94,0,0,1-.47,2,5.85,5.85,0,0,1-1.47,1.8,6.29,6.29,0,0,1-2.28,1.28,3.61,3.61,0,0,1-2.06.07,3.32,3.32,0,0,1-1.47-.88c-.41-.42-1.18-1.36-2.3-2.83l-5.88-7.69,3.26-2.74,7.39,9.76a4.47,4.47,0,0,0,.93,1,.43.43,0,0,0,.54-.06.52.52,0,0,0,.2-.6,6.3,6.3,0,0,0-.86-1.31L108.29,39Z" fill="#010101"></path><path d="M129,25.66l6.76,15.12-3.32,1.62-4.56-10.24L131.09,43l-2.35,1.15-5.84-9.28,4.45,10-3.3,1.61-6.76-15.12L122.2,29c.55.84,1.18,1.84,1.88,3l2.26,3.58L124.05,28Z" fill="#010101"></path><path d="M140.28,22.69l3.16,16.37-4.09.89-3.17-16.37Z" fill="#010101"></path><path d="M154.36,21.59l2.48,16.69-4.27,0-.24-3h-1.47l-.24,3-4.32,0,2-16.69ZM152.2,32.36q-.33-2.84-.67-7c-.41,3.2-.66,5.55-.74,7Z" fill="#010101"></path><path d="M166.74,23.15,163.8,39.61l-4.11-.77,2.94-16.46Z" fill="#010101"></path><path d="M180.9,27.89l2.59,1.46a22.15,22.15,0,0,1,3.39,2.21,2.86,2.86,0,0,1,.93,1.91,5.82,5.82,0,0,1-.87,3.07,4.91,4.91,0,0,1-1.64,2.07,2.36,2.36,0,0,1-2-.21A3.23,3.23,0,0,1,184.39,40a3.07,3.07,0,0,1,0,1.13,16.78,16.78,0,0,1-1.07,2.22l-2,3.84-3.4-1.93,2.59-4.89a3.83,3.83,0,0,0,.6-1.53c0-.26-.28-.53-.78-.82l-3.51,6.63-3.68-2.08Zm2.32,4.57-1.72,3.26a1.72,1.72,0,0,0,.95.32c.23,0,.52-.36.86-1l.42-.81a1.43,1.43,0,0,0,.25-1.06,1.52,1.52,0,0,0-.76-.7Z" fill="#010101"></path><path d="M201.44,43.54l-9.22,5.73-4,4.46L185.43,51l4-4.46,4.83-9.93,2.81,2.7a65.17,65.17,0,0,1-3.57,5.57c1.34-1.14,3-2.49,5.15-4Z" fill="#010101"></path><path d="M210.61,57.29l-9.05,6.09a19.07,19.07,0,0,1-2.2,1.35,3.6,3.6,0,0,1-3.49-.44,5.93,5.93,0,0,1-1.56-1.74,6.69,6.69,0,0,1-1-2.49,4.21,4.21,0,0,1,.16-2.14,3.59,3.59,0,0,1,1-1.47c.44-.38,1.42-1.08,2.94-2.12l8-5.42,2.24,3.67-10.17,6.84a5,5,0,0,0-1,.9.45.45,0,0,0,0,.56.48.48,0,0,0,.54.27,6.14,6.14,0,0,0,1.36-.78l10-6.71Z" fill="#010101"></path><path d="M151.87,134.72a47.46,47.46,0,0,1-17.66-3.28,46,46,0,0,1-20.87-16.56A46,46,0,0,1,109,70.28,47.2,47.2,0,0,1,134.22,45.5a47.34,47.34,0,0,1,35.33-.28,45.63,45.63,0,0,1,15,9.71,44.59,44.59,0,0,1,5.84,6.85,46.11,46.11,0,0,1,0,52.5,47.24,47.24,0,0,1-20.87,16.88A47.91,47.91,0,0,1,151.87,134.72Zm0-89.72a44.65,44.65,0,0,0-16.61,3.35,43.86,43.86,0,0,0-14.1,9.32h0a42.81,42.81,0,0,0-5.45,6.48,43.75,43.75,0,0,0-4.08,7.37,42.83,42.83,0,0,0,0,34.24,42.16,42.16,0,0,0,4.08,7.32,43.33,43.33,0,0,0,19.54,15.5,44.56,44.56,0,0,0,33.21-.27A43.82,43.82,0,0,0,182.57,119,43.2,43.2,0,0,0,188,63.59a41.87,41.87,0,0,0-5.45-6.41,42.86,42.86,0,0,0-14.09-9.1A44.33,44.33,0,0,0,151.89,45Z" fill="#010101"></path><path d="M101.05,95.63,85,95.82V92l10.85-.14L85,90.48v-2.7l10.59-1.72L85,86.14V82.32L101,82.13v5.62c-1,.19-2.1.37-3.41.57L93.54,89l7.51.91Z" fill="#010101"></path><path d="M103,102.64,87.89,109.1l-1-4.29,2.76-1-.35-1.53-2.87.47-1-4.36,16.11-1.89ZM92.39,103q2.58-1,6.41-2.34c-3.09.34-5.34.64-6.75.88Z" fill="#010101"></path><path d="M103.47,104.78l1.29,2.77a24.64,24.64,0,0,1,1.53,3.81,3,3,0,0,1-.31,2.13,5.36,5.36,0,0,1-2.41,2,4.59,4.59,0,0,1-2.48.72,2.49,2.49,0,0,1-1.47-1.36,3.37,3.37,0,0,1,0,1.94,2.66,2.66,0,0,1-.62.93,16.83,16.83,0,0,1-2.14,1.22L93,120.87l-1.69-3.63,4.82-2.45a3.61,3.61,0,0,0,1.37-.89c.13-.22.07-.59-.18-1.14l-6.53,3.32L89,112.18Zm-.66,5.17-3.2,1.64a1.78,1.78,0,0,0,.61.84c.2.12.61,0,1.25-.31l.8-.4c.45-.25.73-.48.78-.72a1.66,1.66,0,0,0-.22-1Z" fill="#010101"></path><path d="M113,121.06l-2.57,2L109,121,98.73,129.2l-2.51-3.46,10.29-8.14-1.47-2,2.57-2Z" fill="#010101"></path><path d="M116.6,124.62l-11.21,12.07-3-3,11.21-12.07Z" fill="#010101"></path><path d="M123.2,129.84l-7.45,15.08-3.46-2.57,1.47-2.56-1.21-.9-1.89,2.31-3.51-2.64,11.12-12.33Zm-7.84,7.43q1.35-2.49,3.43-6.11-3.23,3.54-4.59,5.25Z" fill="#010101"></path><path d="M129,133.05l-5.7,12,2.27,1.16-1.47,3-6-3.07,7.17-15Z" fill="#010101"></path><path d="M142,137.32l-1.41,16.85-4.15-1,.45-3-1.47-.35-.92,2.87-4.2-1,5.8-15.8Zm-4.55,10c.21-1.9.53-4.23.94-7q-1.7,4.55-2.35,6.66Z" fill="#010101"></path><path d="M143.89,137.75l2.94.17a22.37,22.37,0,0,1,4,.45,2.84,2.84,0,0,1,1.63,1.3,5.67,5.67,0,0,1,.47,3.15,5,5,0,0,1-.61,2.6,2.43,2.43,0,0,1-1.88.7,3.06,3.06,0,0,1,1.61.95,2.49,2.49,0,0,1,.48,1,15.8,15.8,0,0,1,0,2.48l-.25,4.4-3.88-.21.33-5.55a4.09,4.09,0,0,0-.11-1.67c-.13-.22-.47-.35-1-.37l-.44,7.52-4.16-.23Zm4,3.09-.22,3.71a1.8,1.8,0,0,0,1-.14c.2-.13.31-.56.36-1.29l.05-.92a1.41,1.41,0,0,0-.21-1.06A1.5,1.5,0,0,0,147.9,140.84Z" fill="#010101"></path><path d="M162.46,137.14l.35,3.33-2.46.29,1.39,13.29-4.15.51-1.39-13.29-2.47.3-.34-3.32Z" fill="#010101"></path><path d="M173.29,139l-3.68,1.2-.34-1.18a2.49,2.49,0,0,0-.45-1,.55.55,0,0,0-.54-.08.67.67,0,0,0-.46.49,1.86,1.86,0,0,0,.09,1,2.62,2.62,0,0,0,.56,1.13,3,3,0,0,0,1.41.62,10.58,10.58,0,0,1,4.15,1.61,6.51,6.51,0,0,1,1.68,3.18,6.42,6.42,0,0,1,.35,2.64,3.32,3.32,0,0,1-1.09,1.84,6,6,0,0,1-2.41,1.37,5.77,5.77,0,0,1-2.94.26,3,3,0,0,1-2-1.13,8.32,8.32,0,0,1-1.16-2.66l-.31-1,3.68-1.2.56,2a3,3,0,0,0,.5,1.11.62.62,0,0,0,.63.07.71.71,0,0,0,.5-.52,2,2,0,0,0-.09-1,3,3,0,0,0-.91-1.73,12.62,12.62,0,0,0-2.29-.85,20.25,20.25,0,0,1-2.41-.85,3.38,3.38,0,0,1-1.16-1,5.77,5.77,0,0,1-.93-2,6.29,6.29,0,0,1-.33-2.82,3.36,3.36,0,0,1,1.07-1.8,6.07,6.07,0,0,1,2.29-1.26,6.41,6.41,0,0,1,2.81-.34,2.9,2.9,0,0,1,1.84.85,7.43,7.43,0,0,1,1.14,2.59Z" fill="#010101"></path><path d="M186,131.72l-3.32,2.16-.61-1a2.41,2.41,0,0,0-.69-.86.49.49,0,0,0-.53.08.63.63,0,0,0-.33.58,1.79,1.79,0,0,0,.32.93,2.67,2.67,0,0,0,.81.95,3,3,0,0,0,1.53.22,12.38,12.38,0,0,1,4.41.48,6.33,6.33,0,0,1,2.4,2.62,6.59,6.59,0,0,1,1,2.46,3.41,3.41,0,0,1-.62,2.06,6.34,6.34,0,0,1-2,2,5.82,5.82,0,0,1-2.77,1,3,3,0,0,1-2.17-.58,8.27,8.27,0,0,1-1.77-2.28l-.55-.93,3.31-2.14,1,1.73a2.49,2.49,0,0,0,.73.94.6.6,0,0,0,.63-.09.7.7,0,0,0,.35-.63,1.77,1.77,0,0,0-.33-1c-.49-.84-.92-1.32-1.3-1.43a12.31,12.31,0,0,0-2.42-.22,18,18,0,0,1-2.54-.18,3.43,3.43,0,0,1-1.39-.69,5.9,5.9,0,0,1-1.39-1.67,6.22,6.22,0,0,1-1-2.65,3.33,3.33,0,0,1,.6-2,6.1,6.1,0,0,1,1.92-1.83,6.64,6.64,0,0,1,2.63-1.06,2.88,2.88,0,0,1,2,.34,7,7,0,0,1,1.73,2.2Z" fill="#010101"></path><path d="M190.77,120.6l4.57,10,3.88,4.48-2.88,2.7-3.88-4.47-9-5.84,2.86-2.69a64.23,64.23,0,0,1,5,4.17c-1-1.49-2.09-3.39-3.35-5.7Z" fill="#010101"></path><path d="M200,115.89l-2.33,3.24-.95-.75a2.34,2.34,0,0,0-.94-.54.56.56,0,0,0-.48.28.67.67,0,0,0-.1.67,1.87,1.87,0,0,0,.63.76,2.76,2.76,0,0,0,1.1.57,3,3,0,0,0,1.47-.38,11.57,11.57,0,0,1,4.29-1.26,6.06,6.06,0,0,1,3.16,1.51,5.91,5.91,0,0,1,1.79,1.9,3.41,3.41,0,0,1,.15,2.14,6.52,6.52,0,0,1-1.17,2.58,6.06,6.06,0,0,1-2.2,2,3,3,0,0,1-2.2.29,8.11,8.11,0,0,1-2.45-1.41l-.85-.66,2.33-3.24,1.57,1.21a2.51,2.51,0,0,0,1,.58.64.64,0,0,0,.55-.33.74.74,0,0,0,.11-.72,1.94,1.94,0,0,0-.66-.76,3,3,0,0,0-1.71-.82,12.7,12.7,0,0,0-2.34.73,17.79,17.79,0,0,1-2.44.79,3.31,3.31,0,0,1-1.53-.1,5.38,5.38,0,0,1-1.88-1,5.85,5.85,0,0,1-1.88-2.07,3.43,3.43,0,0,1-.15-2.1,6.41,6.41,0,0,1,1.15-2.43,6.59,6.59,0,0,1,2.08-2,2.8,2.8,0,0,1,2-.45,7,7,0,0,1,2.39,1.37Z" fill="#010101"></path><path d="M200.27,103.9l2.91,1.42-1.07,2.3,11.6,5.68-1.79,3.94-11.6-5.69-1.07,2.31-2.94-1.42Z" fill="#010101"></path><path d="M200.48,102.94l1.73-7,3.11.8-.69,2.82,2.94.74.65-2.64,2.94.74-.65,2.64,3.43.89.73-3.07,3.12.8L216,107Z" fill="#010101"></path><path d="M202.74,81.39l16.07-.07v3.83l-10.85,0,10.84,1.45v2.69L208.2,91l10.59,0v3.82l-16.1.08V89.18c1-.17,2.11-.35,3.41-.53l4.09-.64-7.47-1Z" fill="#010101"></path></svg>